<?xml version="1.0" standalone="no"?>
<!DOCTYPE svg PUBLIC "-//W3C//DTD SVG 20010904//EN"
 "http://www.w3.org/TR/2001/REC-SVG-20010904/DTD/svg10.dtd">
<svg version="1.0" xmlns="http://www.w3.org/2000/svg"
 width="338.000000pt" height="343.000000pt" viewBox="0 0 338.000000 343.000000"
 preserveAspectRatio="xMidYMid meet">
<metadata>
Created by potrace 1.15, written by Peter Selinger 2001-2017
</metadata>
<g transform="translate(0.000000,343.000000) scale(0.100000,-0.100000)"
fill="#000000" stroke="none">
<path d="M0 1715 l0 -1715 1690 0 1690 0 0 1715 0 1715 -1690 0 -1690 0 0
-1715z m1660 1675 c13 -7 21 -7 25 0 3 5 32 10 64 10 46 0 66 -5 97 -26 21
-14 33 -20 27 -13 -22 22 -14 29 33 29 52 0 75 -10 124 -54 19 -17 27 -22 17
-10 -24 28 -22 34 12 34 41 0 81 -17 115 -48 16 -15 26 -21 22 -14 -5 8 2 12
24 12 36 0 77 -19 103 -48 11 -12 26 -18 41 -15 31 6 76 -18 114 -61 17 -19
32 -30 34 -24 10 28 128 -57 128 -91 0 -5 9 -7 20 -4 26 7 83 -37 100 -76 7
-19 20 -31 30 -31 27 0 77 -46 91 -83 7 -19 24 -38 42 -47 42 -20 67 -58 74
-109 4 -25 9 -38 13 -30 5 6 15 9 24 6 21 -8 56 -67 56 -95 0 -12 12 -32 26
-45 38 -33 56 -74 56 -131 1 -30 3 -43 7 -32 7 17 9 17 29 -9 25 -32 37 -83
28 -128 -4 -20 -3 -27 3 -18 16 26 46 -37 47 -100 0 -35 7 -65 17 -80 19 -26
22 -94 7 -134 -6 -15 -6 -24 -1 -20 5 3 12 -4 16 -15 3 -11 11 -20 16 -20 11
0 12 -77 2 -82 -5 -2 -16 -18 -25 -36 -10 -18 -13 -30 -8 -27 18 11 40 -22 40
-59 0 -20 -4 -36 -10 -36 -5 0 -10 -5 -10 -11 0 -6 -9 -24 -21 -40 -14 -20
-16 -27 -6 -23 21 8 29 -34 16 -81 -7 -23 -33 -62 -67 -99 -31 -34 -38 -44
-16 -23 22 20 43 37 47 37 11 0 8 -69 -4 -93 -6 -12 -25 -38 -43 -57 -17 -19
-23 -28 -13 -21 15 12 17 10 17 -27 0 -32 -7 -49 -31 -77 -23 -25 -32 -47 -33
-75 -2 -31 -11 -49 -38 -78 -22 -22 -38 -51 -42 -74 -5 -25 -19 -47 -46 -72
-22 -20 -44 -36 -49 -36 -4 0 -6 -10 -4 -23 6 -29 -34 -79 -77 -97 -18 -7 -30
-20 -30 -30 0 -27 -46 -77 -83 -91 -19 -7 -38 -24 -47 -42 -21 -42 -57 -67
-116 -76 -27 -5 -41 -9 -31 -10 9 0 17 -7 17 -14 0 -22 -35 -47 -86 -63 -26
-8 -53 -23 -61 -34 -20 -29 -66 -50 -107 -50 -25 0 -38 -6 -46 -20 -19 -35
-51 -44 -155 -45 l-100 0 -67 -46 c-107 -75 -212 -87 -310 -38 -44 22 -98 66
-98 81 0 4 16 -2 36 -14 28 -16 52 -21 99 -20 79 1 109 16 183 93 54 56 63 61
103 63 24 0 58 -2 74 -6 17 -4 24 -5 18 -2 -37 16 24 54 86 54 30 0 46 7 69
29 20 20 43 31 75 36 26 4 47 11 47 16 0 17 46 50 85 60 28 7 45 19 57 40 18
30 70 59 107 59 14 0 19 5 15 14 -3 8 -1 24 6 35 12 23 78 60 107 62 11 0 13
3 6 6 -7 2 -13 11 -13 18 0 21 47 71 80 85 16 7 27 17 24 22 -12 20 21 72 63
98 24 16 38 30 32 32 -20 7 -1 58 34 93 24 24 32 42 33 68 0 23 11 49 29 73
21 27 29 50 30 79 0 29 9 53 27 77 18 24 24 39 17 49 -14 22 -11 52 10 92 15
29 18 51 14 90 -3 39 0 61 15 89 11 21 16 35 11 32 -21 -13 -31 68 -14 116 8
22 10 40 5 40 -19 0 -33 74 -21 115 9 32 8 41 -3 47 -25 14 -38 71 -27 119 5
24 8 45 5 48 -2 2 -4 -1 -4 -7 0 -22 -19 -12 -35 18 -8 16 -15 47 -15 69 0 30
-7 46 -29 68 -18 19 -31 45 -36 73 -5 30 -16 51 -36 68 -17 14 -33 41 -40 66
-7 29 -19 46 -40 58 -30 18 -59 70 -59 107 0 14 -5 19 -14 15 -8 -3 -24 -1
-35 6 -23 12 -60 78 -62 107 0 11 -3 13 -6 6 -13 -33 -84 16 -105 72 -7 21
-15 30 -19 23 -13 -21 -70 13 -99 59 -16 24 -30 38 -32 32 -7 -20 -58 -1 -93
34 -24 24 -42 32 -68 33 -23 0 -49 11 -74 30 -21 16 -44 27 -52 26 -31 -8 -83
11 -118 41 -20 18 -34 27 -30 21 7 -13 -13 -24 -42 -24 -9 0 -34 9 -56 20 -23
12 -47 17 -60 14 -35 -12 -86 -5 -121 15 -19 11 -33 15 -31 9 4 -22 -59 -32
-106 -16 -35 11 -46 12 -55 1 -20 -21 -63 -27 -106 -16 -35 10 -41 9 -56 -10
-14 -17 -28 -20 -78 -20 -34 0 -62 -4 -62 -8 0 -17 -60 -39 -104 -39 -35 0
-46 -4 -51 -19 -6 -21 -40 -37 -97 -47 -21 -3 -38 -10 -38 -15 0 -17 -46 -50
-85 -60 -28 -7 -46 -20 -60 -42 -14 -22 -34 -37 -67 -47 -37 -12 -48 -20 -52
-42 -6 -30 -36 -53 -94 -74 -20 -7 -31 -13 -24 -14 39 -1 -19 -82 -73 -102
-21 -7 -30 -15 -23 -19 21 -13 -13 -70 -59 -99 -24 -16 -38 -30 -32 -32 20 -7
1 -58 -34 -93 -24 -24 -32 -42 -33 -68 0 -23 -11 -49 -29 -73 -21 -27 -29 -50
-30 -79 0 -29 -9 -53 -27 -77 -18 -24 -24 -39 -17 -49 14 -22 11 -52 -10 -92
-15 -29 -18 -51 -14 -90 3 -39 0 -61 -15 -89 -11 -20 -15 -36 -9 -35 20 4 27
-58 13 -107 -8 -25 -10 -46 -5 -46 18 0 31 -75 20 -115 -9 -32 -8 -41 3 -47
24 -14 38 -71 28 -116 -8 -32 -7 -39 4 -35 18 7 44 -49 44 -96 0 -30 7 -46 29
-68 18 -19 31 -45 36 -73 5 -30 16 -51 36 -68 17 -14 33 -41 40 -66 7 -28 19
-46 38 -57 31 -18 61 -74 61 -116 0 -21 3 -24 9 -14 22 35 99 -46 102 -106 0
-11 3 -13 6 -5 13 32 84 -17 105 -73 7 -21 15 -30 19 -23 13 21 70 -13 99 -59
16 -24 30 -38 32 -32 7 20 58 1 95 -36 22 -22 40 -31 52 -28 11 3 34 -2 53
-10 69 -32 110 -39 181 -33 145 11 283 24 328 31 36 6 49 4 62 -10 9 -9 17
-20 17 -24 0 -17 -40 -40 -134 -77 -119 -46 -132 -64 -94 -121 14 -21 41 -47
61 -57 21 -12 33 -25 30 -33 -6 -14 -63 -18 -63 -4 0 5 -12 12 -26 15 -36 9
-99 51 -158 104 -47 43 -48 43 -13 6 20 -22 37 -43 37 -47 0 -11 -69 -8 -93 4
-12 6 -35 23 -51 38 -16 14 -25 20 -21 12 7 -11 -1 -13 -39 -9 -34 4 -56 14
-77 34 -20 19 -39 28 -54 26 -32 -4 -76 20 -113 62 -17 19 -32 30 -34 24 -10
-28 -128 57 -128 91 0 5 -10 6 -23 4 -29 -6 -79 34 -97 77 -7 18 -20 30 -30
30 -27 0 -77 46 -91 83 -7 19 -24 38 -42 47 -42 20 -67 58 -74 109 -4 25 -9
38 -13 30 -5 -6 -15 -9 -24 -6 -21 8 -56 67 -56 95 0 12 -12 32 -26 45 -38 33
-56 74 -56 131 -1 30 -3 43 -7 32 -7 -17 -9 -17 -29 9 -25 32 -37 83 -28 128
4 20 3 27 -3 18 -16 -26 -46 37 -47 100 0 35 -7 65 -17 80 -19 26 -22 94 -7
134 5 14 6 24 1 21 -25 -16 -30 127 -6 162 14 20 14 21 0 16 -12 -5 -15 4 -15
54 0 47 5 67 26 98 14 21 20 33 13 27 -19 -18 -26 -16 -33 10 -9 39 13 97 57
146 23 25 30 36 16 24 -34 -31 -39 -29 -39 13 0 41 12 67 49 108 14 16 20 26
13 22 -9 -5 -12 4 -12 33 0 31 7 49 31 76 23 25 32 47 33 75 2 31 11 49 38 78
22 22 38 51 42 74 5 25 19 47 46 72 22 20 44 36 49 36 4 0 6 10 4 23 -6 29 34
79 77 97 18 7 30 20 30 30 0 28 47 78 85 92 19 6 35 18 35 26 0 25 65 80 103
87 26 5 37 13 37 25 0 25 32 49 86 66 26 8 53 23 61 34 21 30 67 50 116 50 36
0 45 3 43 17 -2 28 60 55 116 50 33 -3 45 -1 42 8 -8 20 64 48 109 42 30 -4
46 -1 68 15 23 18 38 20 87 16 33 -3 66 -2 73 3 19 12 116 11 139 -1z m-30
-1375 c61 -32 68 -95 15 -153 l-34 -39 40 -39 c22 -21 57 -63 77 -93 l37 -53
17 38 c29 66 16 124 -28 124 -8 0 -14 5 -14 10 0 6 42 10 105 10 82 0 105 -3
105 -14 0 -7 -15 -17 -32 -22 -33 -10 -40 -18 -103 -126 l-33 -57 29 -46 c36
-57 67 -73 109 -55 66 27 45 -16 -24 -49 -66 -33 -112 -28 -152 15 -19 19 -34
39 -34 44 0 5 -22 -6 -50 -25 -65 -44 -112 -58 -170 -53 -161 16 -188 191 -46
298 l55 42 -29 40 c-39 53 -47 100 -26 144 31 65 120 93 186 59z m-620 -1 c0
-4 -76 -122 -168 -263 -93 -141 -172 -262 -177 -270 -6 -11 11 -13 101 -9 125
5 153 15 220 85 24 24 48 42 53 39 5 -3 -1 -38 -14 -78 l-23 -73 -256 -3
c-141 -1 -256 0 -256 3 0 9 96 160 222 348 65 98 116 182 113 187 -8 13 -147
13 -182 -1 -35 -13 -80 -55 -99 -91 -15 -29 -44 -38 -44 -15 0 11 21 93 35
135 3 9 60 12 240 12 129 0 235 -3 235 -6z m1510 -4 c0 -5 -11 -10 -24 -10
-40 0 -49 -24 -54 -141 l-5 -109 120 0 120 0 6 78 c6 83 -4 150 -25 163 -7 5
-23 9 -35 9 -13 0 -23 5 -23 10 0 6 57 10 150 10 93 0 150 -4 150 -10 0 -5
-10 -10 -22 -10 -58 -1 -66 -38 -67 -315 -1 -197 6 -225 54 -225 13 0 27 -4
30 -10 4 -6 -47 -10 -144 -10 -149 0 -181 7 -119 25 40 12 46 30 47 158 l1 97
-120 0 -120 0 0 -108 c0 -115 12 -152 51 -152 10 0 19 -4 19 -10 0 -6 -53 -10
-140 -10 -131 0 -178 10 -111 23 48 10 54 34 58 247 6 236 0 271 -45 285 -61
18 -31 25 108 25 87 0 140 -4 140 -10z"/>
<path d="M1497 1720 c-39 -45 -44 -90 -17 -145 37 -76 110 -95 183 -47 l28 19
-40 59 c-22 32 -60 78 -84 102 l-44 43 -26 -31z"/>
</g>
</svg>
